<svg xmlns="http://www.w3.org/2000/svg" viewBox="0 0 712 212"><style>.st0{fill-rule:evenodd;clip-rule:evenodd;fill:#EF4A83;}.st1{fill:#FFFFFF;}.st2{fill:#2D2D2D;}</style><path class="st0" d="M514.8 43.5h157.6c7.3 0 13.2 5.9 13.2 13.2v97.4c0 7.3-5.9 13.1-13.2 13.1H514.8c-7.3 0-13.1-5.9-13.1-13.1V56.7C501.6 49.4 507.5 43.5 514.8 43.5z"/><path class="st1" d="M47.6 117.4v16.5c-0.7 0.2-1.6 0.4-3 0.5 -1.3 0.2-2.7 0.3-4.1 0.3 -3.1 0-5.3-0.5-6.5-1.6s-1.8-3-1.8-5.7V85.7c0-1.2 0.3-2.2 1-2.9s1.6-1.2 2.8-1.6c2-0.7 4.4-1.2 7.1-1.5 2.7-0.3 5.2-0.5 7.4-0.5 8.1 0 14.3 1.7 18.6 5.2 4.3 3.5 6.4 8.2 6.4 14.1 0 2.9-0.5 5.5-1.6 7.8s-2.6 4.3-4.6 6 -4.4 3-7.2 3.9 -6 1.4-9.4 1.4L47.6 117.4 47.6 117.4zM51.8 105.4c2.5 0 4.4-0.6 5.9-1.8 1.5-1.2 2.2-2.9 2.2-5.2s-0.7-3.9-2.1-5.2c-1.4-1.2-3.4-1.8-6-1.8 -0.9 0-1.7 0-2.3 0s-1.3 0.1-1.9 0.2v13.6C47.5 105.4 51.8 105.4 51.8 105.4z"/><path class="st1" d="M125.2 112.6c0 3.5-0.5 6.7-1.6 9.5s-2.6 5.2-4.7 7.2c-2 2-4.4 3.5-7.3 4.5 -2.8 1.1-6 1.6-9.5 1.6s-6.7-0.5-9.5-1.5 -5.2-2.5-7.3-4.5c-2-2-3.6-4.4-4.7-7.2 -1.1-2.8-1.6-6-1.6-9.6 0-3.5 0.6-6.6 1.7-9.4s2.7-5.2 4.7-7.2 4.4-3.5 7.3-4.5c2.8-1.1 5.9-1.6 9.4-1.6s6.6 0.5 9.4 1.6 5.2 2.6 7.3 4.6c2 2 3.6 4.4 4.7 7.2C124.6 106.1 125.2 109.2 125.2 112.6zM102.1 101.6c-2.5 0-4.4 0.9-5.7 2.9s-2 4.6-2 8.1c0 3.7 0.7 6.5 2 8.3s3.3 2.8 5.7 2.8 4.4-0.9 5.7-2.8 2-4.6 2-8.3c0-3.5-0.7-6.2-2-8.1C106.5 102.5 104.6 101.6 102.1 101.6z"/><path class="st1" d="M147.4 133.9c-0.6 0.2-1.6 0.4-2.8 0.5s-2.5 0.3-3.9 0.3c-2.9 0-5.1-0.5-6.3-1.4s-1.9-2.8-1.9-5.6v-26.1c0-1.7 0.4-3.2 1.3-4.4s2.1-2.4 3.6-3.3c2.1-1.2 4.4-2.2 7.2-2.8 2.7-0.6 5.6-1 8.6-1 6.4 0 9.6 2.3 9.6 6.8 0 1.1-0.1 2-0.4 2.9 -0.3 0.9-0.6 1.7-1.1 2.3 -1.1-0.2-2.7-0.3-4.8-0.3 -1.5 0-3.1 0.2-4.7 0.5s-3 0.9-4.3 1.6L147.4 133.9 147.4 133.9z"/><path class="st1" d="M209.8 133.9c-0.6 0.2-1.6 0.4-2.8 0.5s-2.5 0.3-3.9 0.3c-2.9 0-5.1-0.5-6.3-1.4s-1.9-2.8-1.9-5.6v-20.8c0-1.8-0.5-3.2-1.6-4s-2.5-1.3-4.3-1.3c-1.2 0-2.3 0.2-3.3 0.4s-2 0.7-2.9 1.1v30.7c-0.6 0.2-1.6 0.4-2.8 0.5s-2.5 0.3-3.9 0.3c-2.9 0-5.1-0.5-6.3-1.4s-1.9-2.8-1.9-5.6v-26.5c0-1.6 0.3-2.9 1-3.9s1.6-1.9 2.8-2.7c2-1.4 4.5-2.5 7.5-3.4s6.4-1.3 10.1-1.3c6.6 0 11.7 1.4 15.3 4.4 3.6 2.9 5.4 7 5.4 12.2L209.8 133.9 209.8 133.9z"/><path class="st1" d="M268.5 125.4c0 1.8-0.3 3.2-1 4 -0.6 0.9-1.7 1.7-3.1 2.6 -0.8 0.5-1.9 0.9-3.1 1.4 -1.2 0.4-2.6 0.8-4 1.1 -1.5 0.3-3 0.6-4.6 0.8s-3.2 0.3-4.8 0.3c-4.2 0-8.2-0.5-11.9-1.6s-6.9-2.8-9.6-5.1 -4.9-5.2-6.5-8.8c-1.6-3.6-2.4-7.8-2.4-12.7 0-4.6 0.8-8.7 2.4-12.2s3.8-6.5 6.5-8.9c2.8-2.4 6-4.2 9.7-5.5 3.7-1.2 7.7-1.8 12-1.8 5.6 0 10 0.9 13.2 2.6 3.3 1.8 4.9 4.1 4.9 6.9 0 1.5-0.4 2.8-1.1 4 -0.8 1.1-1.6 2-2.6 2.6 -1.5-0.9-3.3-1.7-5.5-2.6 -2.2-0.8-4.8-1.2-7.7-1.2 -2.4 0-4.5 0.4-6.4 1.1 -1.9 0.8-3.6 1.8-5 3.2s-2.5 3.1-3.3 5c-0.8 2-1.1 4.2-1.1 6.6 0 2.6 0.4 5 1.1 6.9 0.7 2 1.8 3.7 3.1 5s2.9 2.3 4.7 3 3.8 1 5.9 1c1.3 0 2.4-0.1 3.4-0.3 1-0.2 1.7-0.5 2.2-0.8v-8.4h-9.4c-0.4-0.6-0.7-1.5-1-2.6s-0.5-2.2-0.5-3.3c0-2.1 0.5-3.6 1.4-4.6s2.2-1.4 3.7-1.4H263c1.8 0 3.1 0.5 4.1 1.4 1 1 1.5 2.3 1.5 4.1L268.5 125.4 268.5 125.4z"/><path class="st1" d="M295.5 89.9c3.2 0 6.1 0.3 8.7 1s4.8 1.6 6.7 2.9 3.3 3 4.3 5 1.5 4.4 1.5 7.2v19.7c0 1.5-0.4 2.8-1.3 3.7s-1.9 1.8-3 2.5c-3.8 2.3-9.2 3.4-16.1 3.4 -3.1 0-5.9-0.3-8.4-0.9 -2.5-0.6-4.6-1.5-6.4-2.6 -1.8-1.2-3.2-2.7-4.1-4.5s-1.5-3.9-1.5-6.3c0-4.1 1.2-7.2 3.6-9.3 2.4-2.2 6.1-3.5 11.2-4.1l11.5-1.2v-0.6c0-1.7-0.8-2.9-2.2-3.7 -1.5-0.7-3.6-1.1-6.5-1.1 -2.2 0-4.3 0.2-6.5 0.7 -2.1 0.5-4.1 1.1-5.8 1.8 -0.8-0.5-1.4-1.3-1.9-2.4s-0.8-2.2-0.8-3.4c0-1.5 0.4-2.7 1.1-3.7s1.9-1.7 3.4-2.3c1.7-0.6 3.7-1.1 6-1.4C291.3 90 293.5 89.9 295.5 89.9zM296.2 124.5c1 0 2.1-0.1 3.3-0.3 1.2-0.2 2.1-0.5 2.7-0.8v-7l-6.3 0.5c-1.6 0.1-3 0.5-4 1.1s-1.6 1.5-1.6 2.6 0.5 2.1 1.4 2.9C292.5 124.1 294 124.5 296.2 124.5z"/><path class="st1" d="M391.1 133.9c-0.6 0.2-1.6 0.4-2.8 0.5 -1.2 0.2-2.5 0.3-3.9 0.3 -2.9 0-5-0.5-6.3-1.4s-1.9-2.8-1.9-5.6v-21c0-1.8-0.5-3-1.4-3.8s-2.2-1.2-3.7-1.2c-1 0-2 0.2-2.9 0.5s-1.7 0.8-2.3 1.2c0 0.2 0 0.5 0 0.7s0 0.4 0 0.6V134c-0.6 0.2-1.6 0.4-2.8 0.5 -1.2 0.2-2.5 0.3-3.9 0.3 -2.9 0-5-0.5-6.3-1.4s-1.9-2.8-1.9-5.6v-21c0-1.8-0.5-3-1.5-3.8s-2.3-1.2-3.7-1.2c-1.1 0-2.1 0.2-2.9 0.5s-1.5 0.6-2 0.9v30.9c-0.6 0.2-1.6 0.4-2.8 0.5 -1.2 0.2-2.5 0.3-3.9 0.3 -2.9 0-5-0.5-6.3-1.4s-1.9-2.8-1.9-5.6v-26.5c0-1.6 0.3-2.9 1-3.9s1.6-1.9 2.8-2.7c2-1.4 4.5-2.5 7.4-3.4 2.9-0.8 6-1.3 9.3-1.3 2.4 0 4.7 0.3 6.9 1s4.3 1.6 6.2 3c1.8-1.1 3.7-2.1 5.9-2.8 2.2-0.8 4.9-1.1 8-1.1 2.2 0 4.4 0.3 6.6 0.9 2.1 0.6 4 1.5 5.7 2.8s3 2.9 4 5 1.5 4.6 1.5 7.6L391.1 133.9 391.1 133.9z"/><path class="st1" d="M413.2 118.5c0.8 2.1 2.2 3.6 4.1 4.4s4.1 1.3 6.5 1.3c2.5 0 4.8-0.3 7-0.9s4-1.3 5.4-2.2c0.9 0.6 1.7 1.4 2.4 2.5 0.6 1.1 1 2.2 1 3.3 0 1.5-0.4 2.7-1.2 3.8 -0.8 1.1-2 1.9-3.5 2.6s-3.3 1.2-5.3 1.5 -4.3 0.5-6.8 0.5c-3.5 0-6.7-0.5-9.6-1.4 -3-1-5.5-2.4-7.7-4.4s-3.9-4.4-5.1-7.3 -1.9-6.4-1.9-10.3 0.6-7.2 1.9-10 2.9-5.1 5-6.9 4.4-3.1 7.1-4c2.6-0.8 5.3-1.3 8.1-1.3 3.1 0 5.9 0.5 8.5 1.4s4.8 2.2 6.6 3.9 3.3 3.6 4.3 5.9 1.5 4.8 1.5 7.5c0 2-0.6 3.5-1.7 4.6s-2.7 1.7-4.7 2L413.2 118.5zM420.6 100.8c-2.2 0-4.1 0.7-5.6 2s-2.4 3.3-2.7 5.7l15-2.5c-0.1-0.6-0.2-1.2-0.5-1.8 -0.3-0.6-0.7-1.2-1.2-1.7s-1.2-0.9-2-1.3C422.7 100.9 421.8 100.8 420.6 100.8z"/><path class="st1" d="M484.7 121.2c0 4.5-1.7 7.9-5 10.5 -3.3 2.5-8.3 3.8-14.8 3.8 -2.5 0-4.8-0.2-6.9-0.5s-3.9-0.9-5.4-1.6c-1.5-0.7-2.7-1.7-3.5-2.8 -0.9-1.1-1.3-2.4-1.3-4 0-1.4 0.3-2.6 0.9-3.6s1.3-1.8 2.1-2.4c1.7 0.9 3.6 1.8 5.9 2.5 2.2 0.7 4.7 1.1 7.6 1.1 1.8 0 3.2-0.3 4.2-0.8s1.5-1.2 1.5-2.1c0-0.8-0.4-1.5-1.1-1.9 -0.7-0.5-1.9-0.8-3.5-1.1l-2.6-0.5c-5.1-1-8.9-2.6-11.4-4.7s-3.7-5.2-3.7-9.2c0-2.2 0.5-4.1 1.4-5.9s2.3-3.2 4-4.4c1.7-1.2 3.7-2.1 6.1-2.7s5-1 7.9-1c2.2 0 4.2 0.2 6.1 0.5s3.6 0.8 5 1.4c1.4 0.7 2.5 1.5 3.3 2.5s1.2 2.2 1.2 3.7c0 1.3-0.3 2.5-0.8 3.5s-1.1 1.8-1.9 2.4c-0.5-0.3-1.2-0.6-2.1-0.9s-2-0.6-3.1-0.9 -2.2-0.5-3.4-0.7c-1.1-0.2-2.2-0.3-3.1-0.3 -1.9 0-3.4 0.2-4.5 0.7s-1.6 1.1-1.6 2.1c0 0.7 0.3 1.2 0.9 1.6s1.7 0.8 3.3 1.1l2.7 0.6c5.6 1.3 9.6 3.1 12 5.3C483.5 114.7 484.7 117.6 484.7 121.2z"/><path class="st2" d="M562.5 134.4c-1.2 0.2-2.5 0.3-3.9 0.3 -2.9 0-5-0.5-6.3-1.4 -1.3-1-1.9-2.8-1.9-5.6v-19.5c0-2.4-0.6-4.1-1.8-5.1s-2.7-1.4-4.4-1.4c-1.2 0-2.2 0.2-3.2 0.4 -1 0.3-1.9 0.7-2.7 1.1v30.7c-0.7 0.2-1.6 0.4-2.8 0.5s-2.5 0.3-3.9 0.3c-2.9 0-5-0.5-6.3-1.4 -1.3-1-1.9-2.8-1.9-5.6v-51c0.6-0.2 1.6-0.3 2.8-0.5s2.5-0.3 3.9-0.3c2.9 0 5 0.5 6.3 1.4 1.3 1 1.9 2.8 1.9 5.6v8.7c1.2-0.5 2.5-0.9 4-1.2 1.5-0.3 3-0.5 4.8-0.5 5.8 0 10.3 1.4 13.5 4.4 3.2 2.9 4.8 7.2 4.8 13V134C564.7 134.1 563.8 134.2 562.5 134.4z"/><path class="st2" d="M574.5 91.4c0.6-0.2 1.6-0.3 2.8-0.5s2.5-0.3 3.9-0.3c2.9 0 5 0.5 6.3 1.4 1.3 1 1.9 2.8 1.9 5.6V117c0 2.4 0.6 4.1 1.8 5.2s2.9 1.5 5.1 1.5c1.3 0 2.5-0.1 3.3-0.3 0.8-0.2 1.5-0.5 2-0.7V91.4c0.6-0.2 1.6-0.3 2.8-0.5s2.5-0.3 3.9-0.3c2.9 0 5 0.5 6.3 1.4 1.3 1 1.9 2.8 1.9 5.6v27.2c0 2.9-1.2 5.1-3.7 6.6 -2 1.3-4.5 2.3-7.3 2.9 -2.8 0.7-5.9 1-9.3 1 -3.2 0-6.1-0.4-8.8-1.1 -2.7-0.7-5-1.8-6.9-3.3s-3.4-3.4-4.5-5.7 -1.6-5.1-1.6-8.4L574.5 91.4 574.5 91.4z"/><path class="st2" d="M649.5 89.9c2.9 0 5.6 0.5 8.1 1.4 2.5 1 4.8 2.4 6.6 4.3 1.9 1.9 3.4 4.2 4.4 7s1.6 6.1 1.6 9.8 -0.6 7-1.7 9.8c-1.1 2.8-2.7 5.2-4.8 7.2 -2 1.9-4.6 3.4-7.5 4.4 -3 1-6.2 1.5-9.8 1.5 -3.9 0-7.2-0.5-9.9-1.4s-5-2-6.9-3.4c-2.6-1.8-3.9-4.2-3.9-7v-47c0.7-0.2 1.6-0.3 2.8-0.5s2.5-0.3 3.9-0.3c2.9 0 5 0.5 6.3 1.4 1.3 1 1.9 2.8 1.9 5.6v8.7c1.2-0.5 2.5-0.9 3.9-1.2C646.3 90 647.8 89.9 649.5 89.9zM646.7 101.6c-1.2 0-2.2 0.2-3.2 0.4 -1 0.3-1.9 0.7-2.7 1.1v19.1c0.7 0.3 1.4 0.7 2.3 0.9 0.9 0.3 2 0.4 3.2 0.4 2.6 0 4.8-0.9 6.3-2.8 1.6-1.9 2.4-4.7 2.4-8.4 0-3.8-0.8-6.5-2.2-8.2C651.3 102.4 649.3 101.6 646.7 101.6z"/></svg>
