<?xml version="1.0" standalone="no"?>
<!DOCTYPE svg PUBLIC "-//W3C//DTD SVG 20010904//EN"
 "http://www.w3.org/TR/2001/REC-SVG-20010904/DTD/svg10.dtd">
<svg version="1.0" xmlns="http://www.w3.org/2000/svg"
 width="700.000000pt" height="700.000000pt" viewBox="0 0 700.000000 700.000000"
 preserveAspectRatio="xMidYMid meet">
<metadata>
Created by potrace 1.11, written by Peter Selinger 2001-2013
</metadata>
<g transform="translate(0.000000,700.000000) scale(0.100000,-0.100000)"
fill="#000000" stroke="none">
<path d="M0 3500 l0 -3500 3500 0 3500 0 0 3500 0 3500 -3500 0 -3500 0 0
-3500z m3468 735 c2 -803 1 -845 -18 -962 -61 -365 -195 -629 -450 -883 -75
-75 -161 -150 -215 -187 -483 -327 -1086 -369 -1597 -112 -333 167 -609 459
-748 790 -87 211 -123 390 -123 619 0 437 161 819 475 1128 232 228 503 366
838 427 124 23 131 23 980 21 l855 -1 3 -840z m1836 825 c151 -26 219 -43 326
-85 515 -198 874 -620 991 -1165 20 -90 23 -134 23 -310 0 -174 -3 -220 -22
-307 -94 -433 -333 -782 -695 -1018 -515 -335 -1189 -335 -1704 1 -361 234
-596 576 -695 1012 -22 95 -22 111 -25 995 l-4 897 843 0 c799 0 849 -1 962
-20z"/>
<path d="M1495 3232 c-78 -38 -125 -112 -125 -200 0 -45 3 -51 53 -98 77 -75
156 -134 179 -134 84 0 184 79 207 163 27 94 -10 197 -90 253 -55 38 -161 45
-224 16z"/>
<path d="M5322 3240 c-75 -30 -142 -127 -142 -203 0 -99 70 -199 158 -225 l42
-13 62 47 c33 26 90 74 124 107 56 52 64 64 64 96 -1 74 -57 154 -132 185 -41
17 -139 20 -176 6z"/>
</g>
</svg>
