<svg width="200" height="200" viewBox="0 0 200 200" fill="none" xmlns="http://www.w3.org/2000/svg">
<rect width="200" height="200" fill="#2D2D2D"/>
<circle r="45" transform="matrix(-1 0 0 1 145 130)" fill="#FFE5AD"/>
<rect width="49" height="49" transform="matrix(-1 0 0 1 149 85)" fill="#FFE5AD"/>
<circle cx="154.5" cy="143.5" r="12.5" fill="url(#paint0_radial)"/>
<circle cx="154.5" cy="143.5" r="6.5" fill="#D32828"/>
<path fill-rule="evenodd" clip-rule="evenodd" d="M105.831 152.169C112.374 155.881 119.94 158 128 158C152.853 158 173 137.853 173 113C173 104.94 170.881 97.3742 167.169 90.8306C180.802 98.5631 190 113.207 190 130C190 154.853 169.853 175 145 175C128.207 175 113.563 165.802 105.831 152.169Z" fill="#D54A80"/>
<circle cx="54" cy="130" r="45" fill="#FFE5AD"/>
<rect x="50" y="85" width="49" height="49" fill="#FFE5AD"/>
<circle cx="45.5" cy="143.5" r="12.5" fill="url(#paint1_radial)"/>
<circle cx="45.5" cy="143.5" r="6.5" fill="#D32828"/>
<path fill-rule="evenodd" clip-rule="evenodd" d="M93.1693 152.169C86.6256 155.881 79.0603 158 71 158C46.1472 158 26 137.853 26 113C26 104.94 28.1192 97.3742 31.8307 90.8306C18.198 98.5631 9 113.207 9 130C9 154.853 29.1472 175 54 175C70.7925 175 85.4367 165.802 93.1693 152.169Z" fill="#D54A80"/>
<path d="M54.7578 59.9727V74H46.5547V34.1875H62.0859C65.0755 34.1875 67.7005 34.7344 69.9609 35.8281C72.2396 36.9219 73.9896 38.4805 75.2109 40.5039C76.4323 42.5091 77.043 44.7969 77.043 47.3672C77.043 51.2682 75.7031 54.349 73.0234 56.6094C70.362 58.8516 66.6706 59.9727 61.9492 59.9727H54.7578ZM54.7578 53.3281H62.0859C64.2552 53.3281 65.9049 52.8177 67.0352 51.7969C68.1836 50.776 68.7578 49.3177 68.7578 47.4219C68.7578 45.4714 68.1836 43.8945 67.0352 42.6914C65.8867 41.4883 64.3008 40.8685 62.2773 40.832H54.7578V53.3281ZM114.203 68.9688C112.727 70.737 110.639 72.1133 107.941 73.0977C105.243 74.0638 102.254 74.5469 98.9727 74.5469C95.5273 74.5469 92.5013 73.7995 89.8945 72.3047C87.306 70.7917 85.3008 68.6042 83.8789 65.7422C82.4753 62.8802 81.7552 59.5169 81.7188 55.6523V52.9453C81.7188 48.9714 82.3841 45.5352 83.7148 42.6367C85.0638 39.7201 86.9961 37.4961 89.5117 35.9648C92.0456 34.4154 95.0078 33.6406 98.3984 33.6406C103.12 33.6406 106.811 34.7708 109.473 37.0312C112.134 39.2734 113.711 42.5456 114.203 46.8477H106.219C105.854 44.569 105.043 42.901 103.785 41.8438C102.546 40.7865 100.832 40.2578 98.6445 40.2578C95.8555 40.2578 93.7318 41.306 92.2734 43.4023C90.8151 45.4987 90.0768 48.6159 90.0586 52.7539V55.2969C90.0586 59.4714 90.8516 62.625 92.4375 64.7578C94.0234 66.8906 96.3477 67.957 99.4102 67.957C102.491 67.957 104.688 67.3008 106 65.9883V59.125H98.5352V53.082H114.203V68.9688Z" fill="white"/>
<path d="M153.277 74H145.074V56.9375H129.078V74H120.875V34.1875H129.078V50.3203H145.074V34.1875H153.277V74Z" fill="#EF4A83"/>
<defs>
<radialGradient id="paint0_radial" cx="0" cy="0" r="1" gradientUnits="userSpaceOnUse" gradientTransform="translate(154.5 143.5) rotate(90) scale(12.5)">
<stop stop-color="#D32828"/>
<stop offset="0.328125" stop-color="#D32828"/>
<stop offset="1" stop-color="#D3725F" stop-opacity="0.2"/>
</radialGradient>
<radialGradient id="paint1_radial" cx="0" cy="0" r="1" gradientUnits="userSpaceOnUse" gradientTransform="translate(45.5 143.5) rotate(90) scale(12.5)">
<stop stop-color="#D32828"/>
<stop offset="0.328125" stop-color="#D32828"/>
<stop offset="1" stop-color="#D3725F" stop-opacity="0.2"/>
</radialGradient>
</defs>
</svg>
